<svg width="20" height="19" viewBox="0 0 20 19" fill="none" xmlns="http://www.w3.org/2000/svg">
<g filter="url(#filter0_d_28_59)">
<path d="M9.34107 9.7475L5.14457 4.95075C4.64932 4.38638 5.05182 3.5 5.80345 3.5H14.1964C14.3647 3.49986 14.5294 3.5482 14.6708 3.63925C14.8122 3.73029 14.9244 3.86018 14.994 4.01336C15.0635 4.16653 15.0874 4.3365 15.0628 4.50291C15.0382 4.66931 14.9662 4.8251 14.8553 4.95163L10.6588 9.74663C10.5767 9.84061 10.4754 9.91593 10.3618 9.96755C10.2481 10.0192 10.1248 10.0459 9.99995 10.0459C9.87514 10.0459 9.75177 10.0192 9.63813 9.96755C9.52449 9.91593 9.4232 9.84061 9.34107 9.74663V9.7475Z" fill="#999999"/>
</g>
<defs>
<filter id="filter0_d_28_59" x="-1" y="0" width="22" height="22" filterUnits="userSpaceOnUse" color-interpolation-filters="sRGB">
<feFlood flood-opacity="0" result="BackgroundImageFix"/>
<feColorMatrix in="SourceAlpha" type="matrix" values="0 0 0 0 0 0 0 0 0 0 0 0 0 0 0 0 0 0 127 0" result="hardAlpha"/>
<feOffset dy="4"/>
<feGaussianBlur stdDeviation="2"/>
<feComposite in2="hardAlpha" operator="out"/>
<feColorMatrix type="matrix" values="0 0 0 0 0 0 0 0 0 0 0 0 0 0 0 0 0 0 0.25 0"/>
<feBlend mode="normal" in2="BackgroundImageFix" result="effect1_dropShadow_28_59"/>
<feBlend mode="normal" in="SourceGraphic" in2="effect1_dropShadow_28_59" result="shape"/>
</filter>
</defs>
</svg>
