<svg width="18" height="18" viewBox="0 0 18 18" fill="none" xmlns="http://www.w3.org/2000/svg">
<g clip-path="url(#clip0_28_62)">
<path d="M9 16.5C13.1422 16.5 16.5 13.1422 16.5 9C16.5 4.85775 13.1422 1.5 9 1.5C4.85775 1.5 1.5 4.85775 1.5 9C1.5 13.1422 4.85775 16.5 9 16.5Z" stroke="#999999" stroke-width="1.5" stroke-linecap="round" stroke-linejoin="round"/>
<path d="M1.50012 9H16.5001" stroke="#999999" stroke-width="1.5" stroke-linecap="round" stroke-linejoin="round"/>
<path d="M9.00012 16.5C10.6569 16.5 12.0001 13.1422 12.0001 9C12.0001 4.85775 10.6569 1.5 9.00012 1.5C7.34337 1.5 6.00012 4.85775 6.00012 9C6.00012 13.1422 7.34337 16.5 9.00012 16.5Z" stroke="#999999" stroke-width="1.5" stroke-linecap="round" stroke-linejoin="round"/>
<path d="M3.69678 3.80347C4.39243 4.50096 5.21906 5.05409 6.12918 5.43108C7.03929 5.80808 8.01493 6.00149 9.00003 6.00022V6.00022C9.98513 6.00149 10.9608 5.80808 11.8709 5.43108C12.781 5.05409 13.6076 4.50096 14.3033 3.80347" stroke="#999999" stroke-width="1.5" stroke-linecap="round" stroke-linejoin="round"/>
<path d="M14.3033 14.197C13.6076 13.4995 12.781 12.9464 11.8709 12.5694C10.9608 12.1924 9.98513 11.999 9.00003 12.0003C8.01493 11.999 7.03929 12.1924 6.12918 12.5694C5.21906 12.9464 4.39243 13.4995 3.69678 14.197" stroke="#999999" stroke-width="1.5" stroke-linecap="round" stroke-linejoin="round"/>
</g>
<defs>
<clipPath id="clip0_28_62">
<rect width="18" height="18" fill="white"/>
</clipPath>
</defs>
</svg>
